<svg width="584" height="392" viewBox="0 0 584 392" fill="none" xmlns="http://www.w3.org/2000/svg">
<g filter="url(#filter0_dd)">
<path fill-rule="evenodd" clip-rule="evenodd" d="M108 32C108 27.5817 111.582 24 116 24H284C296 24 296 34 290 40H290.111C286.311 44.246 284 49.8532 284 56C284 69.2548 294.745 76 308 76C321.255 76 332 69.2548 332 56C332 49.8532 329.689 44.246 325.889 40H326C320 34 320 24 332 24H500C504.418 24 508 27.5817 508 32L508 130V130.036C508.02 142 518.006 141.994 524 136V136.111C528.246 132.311 533.853 130 540 130C553.255 130 560 140.745 560 154C560 167.255 553.255 178 540 178C533.853 178 528.246 175.689 524 171.889V172C518.006 166.006 508.02 166 508 177.963L508 178L508 276C508 280.418 504.418 284 500 284H332C320 284 320 294 326 300H325.889C329.689 304.246 332 309.853 332 316C332 329.255 321.255 336 308 336C294.745 336 284 329.255 284 316C284 309.853 286.311 304.246 290.111 300H290C296 294 296 284 284 284H116C111.582 284 108 280.418 108 276V177.796C107.887 166 97.9668 166.034 92.001 172V171.889C87.7549 175.689 82.1478 178 76.001 178C62.7461 178 56.001 167.255 56.001 154C56.001 140.745 62.7461 130 76.001 130C82.1478 130 87.7549 132.311 92.001 136.111V136C97.9667 141.966 107.887 142 108 130.205V32Z" fill="white"/>
</g>
<g filter="url(#filter1_d)">
<path d="M204 206C230.51 206 252 184.51 252 158C252 131.49 230.51 110 204 110C177.49 110 156 131.49 156 158C156 184.51 177.49 206 204 206Z" fill="white"/>
</g>
<path d="M216.642 174.698C213.128 177.362 208.75 178.946 204 178.946C199.226 178.946 194.828 177.346 191.306 174.656L180.659 185.186C186.931 190.575 195.082 193.84 204 193.84C212.877 193.84 220.994 190.606 227.254 185.26L216.642 174.698Z" fill="#04ADE0"/>
<path d="M224.33 152.955C224.73 154.572 224.945 156.26 224.945 158C224.945 162.715 223.386 167.066 220.757 170.566L231.367 181.128C236.811 174.685 239.841 166.497 239.841 158C239.841 152.206 238.428 146.55 235.799 141.486L224.33 152.955Z" fill="#F54949"/>
<path d="M187.202 170.513C184.597 167.021 183.055 162.692 183.055 158C183.055 146.432 192.432 137.054 204 137.054C207.345 137.054 210.504 137.842 213.309 139.237L224.126 128.419C218.373 124.477 211.436 122.159 204 122.159C184.338 122.159 168.16 138.338 168.16 158C168.16 166.456 171.16 174.608 176.559 181.039L187.202 170.513Z" fill="#00BC6A"/>
<path d="M201.937 166.622C201.005 166.622 200.072 166.266 199.36 165.554L192.321 158.515C190.897 157.092 190.897 154.785 192.321 153.362C193.743 151.938 196.052 151.938 197.474 153.362L201.938 157.824L230.416 129.346C231.838 127.922 234.147 127.922 235.57 129.346C236.993 130.769 236.993 133.077 235.57 134.5L204.514 165.554C203.803 166.266 202.87 166.622 201.937 166.622Z" fill="#37474F"/>
<path d="M284.757 171.081H291.324V151.394H300.081V144.895L276 144.831V151.394H284.757V171.081Z" fill="#3A3E42"/>
<path d="M317.595 166.706L311.027 158V171.081H304.46V144.831L308.838 144.895L317.595 155.769L326.352 144.895L330.73 144.831V171.081H324.162V158L317.595 166.706Z" fill="#3A3E42"/>
<path d="M354.811 160.144H343.865V165.519H359.189V171.145L337.298 171.145V144.831H359.189V150.3H343.865V155.769H354.811V160.144Z" fill="#3A3E42"/>
<path fill-rule="evenodd" clip-rule="evenodd" d="M402.973 164.519H398.595V171.145H392.027V144.831H404.068C410.636 144.831 415.014 148.102 415.014 154.675C415.014 159.039 411.73 162.331 409.541 163.425L416.109 171.081H408.446L402.973 164.519ZM408.446 154.675C408.446 151.394 406.257 150.3 402.973 150.3H398.595V159L402.973 159.05C406.257 159.05 408.446 157.956 408.446 154.675Z" fill="#3A3E42"/>
<path d="M422.676 171.081V144.831H429.244V171.081H422.676Z" fill="#3A3E42"/>
<path d="M378.892 171.145L372.325 171.145V151.457H363.568V144.895H387.649V151.457H378.892V171.145Z" fill="#3A3E42"/>
<path d="M459.188 147.275C456.798 145.302 453.816 144.157 450.699 144.015C447.583 143.873 444.505 144.743 441.94 146.49C439.376 148.237 437.466 150.765 436.504 153.685C435.543 156.605 435.583 159.755 436.619 162.65C437.656 165.545 439.63 168.025 442.239 169.708C444.848 171.391 447.947 172.184 451.059 171.964C454.17 171.745 457.123 170.525 459.461 168.493C461.799 166.462 463.394 163.73 464 160.719L457.614 159.475C457.285 161.109 456.42 162.59 455.151 163.693C453.883 164.795 452.281 165.457 450.593 165.576C448.905 165.695 447.224 165.265 445.809 164.352C444.393 163.439 443.322 162.093 442.76 160.523C442.198 158.952 442.176 157.243 442.697 155.659C443.219 154.075 444.255 152.704 445.647 151.756C447.038 150.808 448.708 150.336 450.398 150.413C452.089 150.49 453.707 151.112 455.003 152.182L459.188 147.275Z" fill="#3A3E42"/>
<defs>
<filter id="filter0_dd" x="0.000976562" y="0" width="583.999" height="392" filterUnits="userSpaceOnUse" color-interpolation-filters="sRGB">
<feFlood flood-opacity="0" result="BackgroundImageFix"/>
<feColorMatrix in="SourceAlpha" type="matrix" values="0 0 0 0 0 0 0 0 0 0 0 0 0 0 0 0 0 0 127 0"/>
<feOffset dx="-16" dy="16"/>
<feGaussianBlur stdDeviation="20"/>
<feColorMatrix type="matrix" values="0 0 0 0 0.0224 0 0 0 0 0.0512 0 0 0 0 0.08 0 0 0 0.08 0"/>
<feBlend mode="normal" in2="BackgroundImageFix" result="effect1_dropShadow"/>
<feColorMatrix in="SourceAlpha" type="matrix" values="0 0 0 0 0 0 0 0 0 0 0 0 0 0 0 0 0 0 127 0"/>
<feOffset dy="1"/>
<feGaussianBlur stdDeviation="1"/>
<feColorMatrix type="matrix" values="0 0 0 0 0.0224 0 0 0 0 0.0512 0 0 0 0 0.08 0 0 0 0.08 0"/>
<feBlend mode="normal" in2="effect1_dropShadow" result="effect2_dropShadow"/>
<feBlend mode="normal" in="SourceGraphic" in2="effect2_dropShadow" result="shape"/>
</filter>
<filter id="filter1_d" x="154" y="108.5" width="100" height="100" filterUnits="userSpaceOnUse" color-interpolation-filters="sRGB">
<feFlood flood-opacity="0" result="BackgroundImageFix"/>
<feColorMatrix in="SourceAlpha" type="matrix" values="0 0 0 0 0 0 0 0 0 0 0 0 0 0 0 0 0 0 127 0"/>
<feOffset dy="0.5"/>
<feGaussianBlur stdDeviation="1"/>
<feColorMatrix type="matrix" values="0 0 0 0 0.0578824 0 0 0 0 0.109333 0 0 0 0 0.160784 0 0 0 0.2 0"/>
<feBlend mode="normal" in2="BackgroundImageFix" result="effect1_dropShadow"/>
<feBlend mode="normal" in="SourceGraphic" in2="effect1_dropShadow" result="shape"/>
</filter>
</defs>
</svg>
