<svg xmlns="http://www.w3.org/2000/svg" width="160.358" height="54.475" viewBox="0 0 160.358 54.475">
  <g id="Group_10" data-name="Group 10" transform="translate(-1 -3.585)">
    <path id="Path_3" data-name="Path 3" d="M12.357,0H9.927V-.5q-1.484.2-2.95.39a24.618,24.618,0,0,1-2.95.223,1.771,1.771,0,0,1-2-2V-18.054H4.453V-2.208l5.474-.148v-15.7h2.431ZM19.19-22.006h-2.5v-3.117h2.5ZM19.153,0H16.722V-18.054h2.431ZM33.908-3.878A3.779,3.779,0,0,1,32.814-1.1,3.708,3.708,0,0,1,30.067,0H26V6.847H23.536v-24.9H26v.5l2.932-.371a24.023,24.023,0,0,1,2.913-.241,1.8,1.8,0,0,1,2.06,2.022Zm-2.468-.371v-11.6L26-15.7V-2.171h3.414A1.813,1.813,0,0,0,31.441-4.249ZM48.144-2.1A1.845,1.845,0,0,1,46.066,0H40.129A1.845,1.845,0,0,1,38.05-2.1v-13.86a1.845,1.845,0,0,1,2.078-2.1h5.938a1.845,1.845,0,0,1,2.078,2.1v6.494l-.835.872H40.444V-2.06h5.307v-3.3h2.394Zm-2.394-8.461v-5.437H40.444v5.437Zm16.11-1.559H59.43v-3.729l-4.546.148V0H52.416V-18.054h2.468v.5q1.225-.186,2.468-.39a17.2,17.2,0,0,1,2.468-.223,1.8,1.8,0,0,1,2.041,2.022ZM74.909-2.1a1.853,1.853,0,0,1-2.1,2.1H67.153a1.853,1.853,0,0,1-2.1-2.1V-6.2h2.431v4.063h4.991v-3.6l-6.457-5.288a2.356,2.356,0,0,1-.928-1.93v-3.006a1.853,1.853,0,0,1,2.1-2.1h5.585a1.853,1.853,0,0,1,2.1,2.1v3.6H72.478V-15.92H67.487v3.154L74-7.478a2.38,2.38,0,0,1,.909,1.967Zm14.477,0a1.853,1.853,0,0,1-2.1,2.1h-6.2a1.845,1.845,0,0,1-2.078-2.1v-13.86a1.845,1.845,0,0,1,2.078-2.1h6.2a1.853,1.853,0,0,1,2.1,2.1Zm-2.468-.074V-15.883H81.482V-2.171Zm13.512-24.7H96.942v8.813h3.08v2.171h-3.08V0H94.512V-15.883h-2.1v-2.171h2.1v-8.888a1.845,1.845,0,0,1,2.078-2.1h3.841ZM109.323,0h-3.507a1.845,1.845,0,0,1-2.078-2.1V-15.883h-2.171v-2.171h2.171v-5.622h2.431v5.622h3.154v2.171h-3.154V-2.171h3.154Z" transform="translate(52.035 35)"/>
    <g id="Group_1" data-name="Group 1" transform="translate(1 3.585)">
      <path id="Subtraction_2" data-name="Subtraction 2" d="M24.171,48.342a24.354,24.354,0,0,1-4.871-.491,24.045,24.045,0,0,1-8.643-3.637A24.241,24.241,0,0,1,1.9,33.579,24.055,24.055,0,0,1,.491,29.042a24.408,24.408,0,0,1,0-9.743,24.038,24.038,0,0,1,3.637-8.643A24.242,24.242,0,0,1,14.763,1.9,24.055,24.055,0,0,1,19.3.491a24.408,24.408,0,0,1,9.743,0,24.038,24.038,0,0,1,8.643,3.637,24.239,24.239,0,0,1,8.757,10.635A24.046,24.046,0,0,1,47.851,19.3a24.408,24.408,0,0,1,0,9.743A24.082,24.082,0,0,1,46.679,33l-4.96-2.546a18.657,18.657,0,1,0-8.2,9.837L36.094,45.2a24.073,24.073,0,0,1-11.923,3.141Z" fill="#e9bf2b" opacity="0.87"/>
      <path id="Path_1" data-name="Path 1" d="M409.567,371.1l16.106,4.67-4.594,16.616Z" transform="translate(-380.513 -337.911)"/>
    </g>
  </g>
</svg>
